<svg width="24" height="27" viewBox="0 0 24 27" fill="none" xmlns="http://www.w3.org/2000/svg">
<path d="M16.0002 1.01465V5.53639C16.0002 6.36882 16.7166 7.04363 17.6002 7.04363H22.4002M20.0002 3.27552C19.2881 2.67531 18.5492 1.96343 18.0827 1.50109C17.7723 1.19343 17.3434 1.01465 16.8928 1.01465H4.79986C3.03255 1.01465 1.59987 2.36427 1.59986 4.02912L1.59973 22.116C1.59972 23.7809 3.0324 25.1305 4.79972 25.1305L19.1998 25.1306C20.9671 25.1306 22.3997 23.781 22.3998 22.1162L22.4002 6.13656C22.4002 5.75116 22.2442 5.38068 21.9602 5.10322C21.4351 4.59015 20.5583 3.74593 20.0002 3.27552Z" stroke="#999999" stroke-width="2" stroke-linecap="round" stroke-linejoin="round"/>
</svg>
