<svg width="32" height="32" viewBox="0 0 32 32" fill="none" xmlns="http://www.w3.org/2000/svg">
    <path
        d="M3.19995 25.1051V6.89453C3.19995 6.34225 3.64767 5.89453 4.19995 5.89453H12.2173C12.4825 5.89453 12.7369 5.99989 12.9244 6.18742L15.0334 8.29638C15.2209 8.48391 15.4753 8.58927 15.7405 8.58927H25.1052C25.6575 8.58927 26.1052 9.03698 26.1052 9.58927V13.9787H27.4125C28.0951 13.9787 28.577 14.6474 28.3612 15.295L24.9858 25.4213C24.8497 25.8296 24.4675 26.1051 24.0371 26.1051H6.24206H5.89469H4.19995C3.64767 26.1051 3.19995 25.6573 3.19995 25.1051Z"
        fill="#999999" />
    <path
        d="M26.1052 13.9787V9.58927C26.1052 9.03698 25.6575 8.58927 25.1052 8.58927H15.7405C15.4753 8.58927 15.2209 8.48391 15.0334 8.29638L12.9244 6.18742C12.7369 5.99989 12.4825 5.89453 12.2173 5.89453H4.19995C3.64767 5.89453 3.19995 6.34225 3.19995 6.89453V25.1051C3.19995 25.6573 3.64767 26.1051 4.19995 26.1051H6.24206C6.79434 26.1051 7.24206 25.6573 7.24206 25.1051V24.939C7.24206 24.8191 7.26362 24.7002 7.30573 24.5879L11.0408 14.6276C11.1872 14.2373 11.5603 13.9787 11.9772 13.9787H27.4125C28.0951 13.9787 28.577 14.6474 28.3612 15.295L24.9858 25.4213C24.8497 25.8296 24.4675 26.1051 24.0371 26.1051H5.89469"
        stroke="#B8B8B8" stroke-width="2" stroke-linecap="round" stroke-linejoin="round" />
</svg>