<svg width="28" height="28" viewBox="0 0 28 28" fill="none" xmlns="http://www.w3.org/2000/svg">
<path d="M16.2962 21.2576C16.2962 22.7788 17.5294 24.012 19.0506 24.012C20.5718 24.012 21.805 22.7788 21.805 21.2576C21.805 19.7363 20.5718 18.5032 19.0506 18.5032C17.5294 18.5032 16.2962 19.7363 16.2962 21.2576ZM16.2962 21.2576H11.0006C8.79156 21.2576 7.00073 19.4668 7.00062 17.2578L7 4.6665M15.7797 10.2399H7M21.805 10.2399C21.805 11.7611 20.5718 12.9943 19.0506 12.9943C17.5294 12.9943 16.2962 11.7611 16.2962 10.2399C16.2962 8.71867 17.5294 7.48548 19.0506 7.48548C20.5718 7.48548 21.805 8.71867 21.805 10.2399Z" stroke="#F2F9FF" stroke-width="2" stroke-linecap="round"/>
</svg>
