<svg width="32" height="32" viewBox="0 0 32 32" fill="none" xmlns="http://www.w3.org/2000/svg">
    <path
        d="M17.3333 15.9997C17.3333 16.7463 16.7333 17.333 16 17.333C15.2666 17.333 14.6666 16.733 14.6666 15.9997C14.6666 15.2663 15.2666 14.6663 16 14.6663C16.7333 14.6663 17.3333 15.253 17.3333 15.9997Z"
        fill="white" />
    <path
        d="M17.3333 10.6667C17.3333 11.4133 16.7333 12 16 12C15.2666 12 14.6666 11.4 14.6666 10.6667C14.6666 9.93333 15.2666 9.33333 16 9.33333C16.7333 9.33333 17.3333 9.92 17.3333 10.6667Z"
        fill="white" />
    <path
        d="M17.3333 21.3337C17.3333 22.0803 16.7333 22.667 16 22.667C15.2666 22.667 14.6666 22.067 14.6666 21.3337C14.6666 20.6003 15.2666 20.0003 16 20.0003C16.7333 20.0003 17.3333 20.587 17.3333 21.3337Z"
        fill="white" />
</svg>