<svg width="32" height="32" viewBox="0 0 32 32" fill="none" xmlns="http://www.w3.org/2000/svg">
<path d="M24.1726 22.8137C23.6279 22.9052 23.2606 23.4209 23.3521 23.9655C23.4436 24.5102 23.9593 24.8775 24.5039 24.786L24.1726 22.8137ZM22.6869 15.5097C22.1347 15.5097 21.6869 15.9574 21.6869 16.5097C21.6869 17.062 22.1347 17.5097 22.6869 17.5097V15.5097ZM21.4565 13.3767C23.2404 13.3767 24.6861 11.9302 24.6861 10.1465H22.6861C22.6861 10.8262 22.1353 11.3767 21.4565 11.3767V13.3767ZM18.2269 10.1465C18.2269 11.9302 19.6726 13.3767 21.4565 13.3767V11.3767C20.7777 11.3767 20.2269 10.8262 20.2269 10.1465H18.2269ZM21.4565 6.91628C19.6726 6.91628 18.2269 8.36276 18.2269 10.1465H20.2269C20.2269 9.4668 20.7777 8.91628 21.4565 8.91628V6.91628ZM24.6861 10.1465C24.6861 8.36276 23.2404 6.91628 21.4565 6.91628V8.91628C22.1353 8.91628 22.6861 9.4668 22.6861 10.1465H24.6861ZM27 20.2186C27 20.845 26.7997 21.3785 26.396 21.8021C25.9834 22.235 25.2863 22.6266 24.1726 22.8137L24.5039 24.786C25.9255 24.5472 27.0593 24.0049 27.8437 23.182C28.6371 22.3497 29 21.3056 29 20.2186H27ZM22.6869 17.5097C23.9747 17.5097 25.0975 17.8757 25.8714 18.416C26.6488 18.9586 27 19.6115 27 20.2186H29C29 18.7773 28.1619 17.5758 27.0163 16.776C25.8673 15.9739 24.3335 15.5097 22.6869 15.5097V17.5097ZM14.0167 9.90564C14.0167 11.4483 12.9842 12.3741 11.8558 12.3741V14.3741C14.2188 14.3741 16.0167 12.4181 16.0167 9.90564H14.0167ZM11.8558 12.3741C10.7273 12.3741 9.69483 11.4483 9.69483 9.90564H7.69483C7.69483 12.4181 9.49272 14.3741 11.8558 14.3741V12.3741ZM9.69483 9.90564C9.69483 9.13509 9.95783 8.59276 10.3179 8.2426C10.6841 7.88644 11.2153 7.6665 11.8558 7.6665V5.6665C10.7505 5.6665 9.70127 6.05235 8.92344 6.80887C8.13944 7.57138 7.69483 8.64863 7.69483 9.90564H9.69483ZM11.8558 7.6665C12.4962 7.6665 13.0275 7.88644 13.3937 8.2426C13.7537 8.59276 14.0167 9.13509 14.0167 9.90564H16.0167C16.0167 8.64863 15.5721 7.57138 14.7881 6.80887C14.0103 6.05235 12.9611 5.6665 11.8558 5.6665V7.6665ZM19.0937 21.557C19.0937 22.1304 18.7869 22.7796 17.7111 23.3404C16.6022 23.9186 14.7734 24.3332 12.0468 24.3332L12.0468 26.3332C14.9287 26.3332 17.1233 25.9024 18.6357 25.1139C20.1813 24.3081 21.0937 23.0691 21.0937 21.557H19.0937ZM12.0468 24.3332C9.32031 24.3332 7.49145 23.9186 6.38259 23.3404C5.30681 22.7796 5 22.1304 5 21.557H3C3 23.0691 3.91241 24.3081 5.45795 25.1139C6.97041 25.9024 9.16498 26.3332 12.0468 26.3332L12.0468 24.3332ZM5 21.557C5 21.1306 5.40655 20.4374 6.78169 19.7921C8.07748 19.184 9.93791 18.7808 12.0468 18.7808V16.7808C9.71163 16.7808 7.54864 17.2229 5.93204 17.9816C4.39479 18.703 3 19.8979 3 21.557H5ZM12.0468 18.7808C14.1558 18.7808 16.0162 19.184 17.312 19.7921C18.6871 20.4374 19.0937 21.1306 19.0937 21.557H21.0937C21.0937 19.8979 19.6989 18.703 18.1616 17.9816C16.5451 17.2229 14.3821 16.7808 12.0468 16.7808V18.7808Z" fill="#999999"/>
</svg>
