<svg width="62" height="62" viewBox="0 0 62 62" fill="none" xmlns="http://www.w3.org/2000/svg">
<g clip-path="url(#clip0_217_334)">
<path d="M42.625 27.125C42.625 33.5575 37.4325 38.75 31 38.75C24.5675 38.75 19.375 33.5575 19.375 27.125C19.375 20.6925 24.5675 15.5 31 15.5C37.4325 15.5 42.625 20.6925 42.625 27.125Z" fill="black"/>
<path fill-rule="evenodd" clip-rule="evenodd" d="M62 31C62 48.1275 48.1275 62 31 62C13.8725 62 0 48.1275 0 31C0 13.8725 13.8725 0 31 0C48.1275 0 62 13.8725 62 31ZM15.5 53.2812C16.12 52.2505 22.1262 42.625 30.9612 42.625C39.7575 42.625 45.8025 52.2738 46.4225 53.2812C50.0257 50.7896 52.9698 47.4599 55.0016 43.5787C57.0333 39.6975 58.0919 35.3808 58.0863 31C58.0863 16.0037 45.9575 3.875 30.9612 3.875C15.965 3.875 3.83625 16.0037 3.83625 31C3.83625 40.2225 8.4475 48.3988 15.5 53.2812Z" fill="black"/>
</g>
<defs>
<clipPath id="clip0_217_334">
<rect width="62" height="62" fill="white"/>
</clipPath>
</defs>
</svg>
