<svg width="32" height="32" viewBox="0 0 32 32" fill="none" xmlns="http://www.w3.org/2000/svg">
<path d="M26.6663 24C26.6663 24.3536 26.5259 24.6928 26.2758 24.9428C26.0258 25.1929 25.6866 25.3333 25.333 25.3333H19.9997C18.9388 25.3333 17.9214 25.7548 17.1712 26.5049C16.4211 27.255 15.9997 28.2725 15.9997 29.3333C15.9997 28.2725 15.5782 27.255 14.8281 26.5049C14.078 25.7548 13.0605 25.3333 11.9997 25.3333H6.66634C6.31272 25.3333 5.97358 25.1929 5.72353 24.9428C5.47348 24.6928 5.33301 24.3536 5.33301 24H2.66634C2.66634 25.0609 3.08777 26.0783 3.83791 26.8284C4.58806 27.5786 5.60548 28 6.66634 28H11.9997C12.7069 28 13.3852 28.2809 13.8853 28.781C14.3854 29.2811 14.6663 29.9594 14.6663 30.6667H17.333C17.333 29.9594 17.614 29.2811 18.1141 28.781C18.6142 28.2809 19.2924 28 19.9997 28H25.333C26.3939 28 27.4113 27.5786 28.1614 26.8284C28.9116 26.0783 29.333 25.0609 29.333 24H26.6663ZM26.6663 8C26.6663 7.64637 26.5259 7.30723 26.2758 7.05719C26.0258 6.80714 25.6866 6.66666 25.333 6.66666H19.9997C18.9388 6.66666 17.9214 6.24523 17.1712 5.49509C16.4211 4.74494 15.9997 3.72753 15.9997 2.66666C15.9997 3.72753 15.5782 4.74494 14.8281 5.49509C14.078 6.24523 13.0605 6.66666 11.9997 6.66666H6.66634C6.31272 6.66666 5.97358 6.80714 5.72353 7.05719C5.47348 7.30723 5.33301 7.64637 5.33301 8H2.66634C2.66634 6.93913 3.08777 5.92171 3.83791 5.17157C4.58806 4.42142 5.60548 3.99999 6.66634 3.99999H11.9997C12.7069 3.99999 13.3852 3.71904 13.8853 3.21895C14.3854 2.71885 14.6663 2.04057 14.6663 1.33333H17.333C17.333 2.04057 17.614 2.71885 18.1141 3.21895C18.6142 3.71904 19.2924 3.99999 19.9997 3.99999H25.333C26.3939 3.99999 27.4113 4.42142 28.1614 5.17157C28.9116 5.92171 29.333 6.93913 29.333 8H26.6663ZM15.9997 16L11.9997 10.6667H9.33301V21.3333H11.9997V16L15.9997 21.3333H18.6663V10.6667H15.9997V16ZM27.9997 10.6667L25.333 17.6933L22.6663 10.6667H19.9997L23.9997 21.3333H26.6663L30.6663 10.6667H27.9997ZM1.33301 10.6667V21.3333H7.99967V18.6667H3.99967V17.3333H6.66634V14.6667H3.99967V13.3333H7.99967V10.6667H1.33301Z" fill="#999999" fill-opacity="0.6"/>
</svg>
