<svg width="38" height="32" viewBox="0 0 38 32" fill="none" xmlns="http://www.w3.org/2000/svg">
<g clip-path="url(#clip0_115_141)">
<path d="M35.1167 18.7377L31.8868 7.49328C31.7603 7.12567 31.4996 6.80325 31.1437 6.57417C30.7878 6.34508 30.3556 6.22161 29.9118 6.22217H7.40561C6.95474 6.22188 6.51623 6.34959 6.15755 6.58568C5.79886 6.82176 5.53986 7.15314 5.42038 7.52884L2.20079 18.7377C2.19088 18.8086 2.19088 18.8802 2.20079 18.9511V25.7777C2.20079 26.2492 2.41754 26.7014 2.80334 27.0348C3.18915 27.3682 3.71242 27.5555 4.25803 27.5555H33.0594C33.605 27.5555 34.1283 27.3682 34.5141 27.0348C34.8999 26.7014 35.1167 26.2492 35.1167 25.7777V18.9422C35.1258 18.8742 35.1258 18.8056 35.1167 18.7377ZM4.25803 25.7777V19.0577L7.40561 7.99995H29.9016L33.0594 19.0577V25.7777H4.25803Z" fill="#999999"/>
<path d="M6.31543 17.7778H31.0023V19.5556H6.31543V17.7778Z" fill="#999999"/>
<path d="M26.8877 21.3334H31.0022V23.1112H26.8877V21.3334Z" fill="#999999"/>
</g>
<defs>
<clipPath id="clip0_115_141">
<rect width="37.0304" height="32" fill="white" transform="translate(0.143555)"/>
</clipPath>
</defs>
</svg>
