<svg width="32" height="32" viewBox="0 0 32 32" fill="none" xmlns="http://www.w3.org/2000/svg">
<path d="M2.66699 22.6667C2.66699 20.152 2.66699 18.896 3.44833 18.1147C4.22966 17.3333 5.48566 17.3333 8.00033 17.3333H24.0003C26.515 17.3333 27.771 17.3333 28.5523 18.1147C29.3337 18.896 29.3337 20.152 29.3337 22.6667C29.3337 25.1813 29.3337 26.4373 28.5523 27.2187C27.771 28 26.515 28 24.0003 28H8.00033C5.48566 28 4.22966 28 3.44833 27.2187C2.66699 26.4373 2.66699 25.1813 2.66699 22.6667ZM2.66699 8.00001C2.66699 5.48534 2.66699 4.22934 3.44833 3.44801C4.22966 2.66667 5.48566 2.66667 8.00033 2.66667H24.0003C26.515 2.66667 27.771 2.66667 28.5523 3.44801C29.3337 4.22934 29.3337 5.48534 29.3337 8.00001C29.3337 10.5147 29.3337 11.7707 28.5523 12.552C27.771 13.3333 26.515 13.3333 24.0003 13.3333H8.00033C5.48566 13.3333 4.22966 13.3333 3.44833 12.552C2.66699 11.7707 2.66699 10.5147 2.66699 8.00001Z" stroke="#999999" stroke-opacity="0.6" stroke-width="1.5"/>
<path d="M14.6667 8H24M8 8H10.6667M14.6667 22.6667H24M8 22.6667H10.6667" stroke="#999999" stroke-opacity="0.6" stroke-width="1.5" stroke-linecap="round"/>
</svg>
